<svg width="13" height="12" viewBox="0 0 13 12" fill="none" xmlns="http://www.w3.org/2000/svg">
<path d="M12.7034 4.27174C12.5573 4.11781 12.3576 4.0177 12.1401 3.98927V3.98885L8.74278 3.54829L7.39838 0.532645C7.20207 0.0912375 6.66175 -0.1172 6.19157 0.0670818C5.96741 0.154941 5.78919 0.322224 5.69562 0.532645L4.35122 3.54829L0.953904 3.98885C0.447744 4.05499 0.0945307 4.49383 0.164986 4.96899C0.195265 5.17318 0.301911 5.3606 0.465879 5.49775L3.02552 7.64046L2.49959 11.0028C2.44261 11.3442 2.60966 11.6844 2.92323 11.8654C3.23239 12.051 3.63006 12.0441 3.93165 11.8478L6.54697 10.1782L9.1623 11.8496C9.58431 12.1184 10.1586 12.0153 10.4451 11.6191C10.5752 11.4391 10.6285 11.2197 10.5944 11.0045L10.0685 7.64086L12.6281 5.49815C13.0097 5.17901 13.0434 4.6299 12.7034 4.27174ZM9.27689 7.15661C9.16238 7.25266 9.10698 7.39629 9.12943 7.53889L9.67723 11.1386L6.80491 9.30534C6.65006 9.20656 6.44664 9.20656 6.29179 9.30534L3.40256 11.1275L3.96452 7.53718C3.98635 7.39516 3.93098 7.25231 3.81706 7.15664L1.07802 4.83907L4.73372 4.36552C4.89379 4.34481 5.03023 4.2462 5.09253 4.10626L6.55243 0.857065C6.55409 0.858973 6.55532 0.861158 6.55609 0.863493L8.00094 4.10455C8.06323 4.24449 8.1997 4.3431 8.35974 4.36381L12.02 4.85835L9.27689 7.15661Z" fill="#C7CED6"/>
</svg>
